inDegrees=no
num_controls=7
num_derivatives=13
num_iterations=112
num_multipliers=7
num_parameters=0
num_slacks=7
num_states=26
objective=4.881688
objective_accelerations=0.612635
objective_balance=0.070276
objective_effort=0.461819
objective_height=3.705489
objective_ligament=0.031470
solver_duration=1687.765159
status=Solve_Succeeded
success=true
DataType=double
version=3
OpenSimVersion=4.4-2022-07-23-0e9fedc
endheader
time	/jointset/ground_pelvis/pelvis_tilt/value	/jointset/ground_pelvis/pelvis_tx/value	/jointset/ground_pelvis/pelvis_ty/value	/jointset/hip_l/hip_flexion_l/value	/jointset/hip_l/hip_adduction_l/value	/jointset/hip_l/hip_rotation_l/value	/jointset/back/lumbar_extension/value	/jointset/patellofemoral_l/patellar_flexion_l/value	/jointset/knee_l/knee_flexion_l/value	/jointset/knee_l/knee_adduction_l/value	/jointset/knee_l/knee_rotation_l/value	/jointset/ankle_l/ankle_angle_l/value	/jointset/subtalar_l/subtalar_angle_l/value	/jointset/ground_pelvis/pelvis_tilt/speed	/jointset/ground_pelvis/pelvis_tx/speed	/jointset/ground_pelvis/pelvis_ty/speed	/jointset/hip_l/hip_flexion_l/speed	/jointset/hip_l/hip_adduction_l/speed	/jointset/hip_l/hip_rotation_l/speed	/jointset/back/lumbar_extension/speed	/jointset/patellofemoral_l/patellar_flexion_l/speed	/jointset/knee_l/knee_flexion_l/speed	/jointset/knee_l/knee_adduction_l/speed	/jointset/knee_l/knee_rotation_l/speed	/jointset/ankle_l/ankle_angle_l/speed	/jointset/subtalar_l/subtalar_angle_l/speed	/forceset/tau_hip_flexion_l	/forceset/tau_hip_adduction_l	/forceset/tau_hip_rotation_l	/forceset/tau_knee_flexion_l	/forceset/tau_ankle_angle_l	/forceset/tau_subtalar_angle_l	/forceset/tau_lumbar_extension	lambda_cid13_p0	lambda_cid13_p1	lambda_cid13_p2	lambda_cid13_p3	lambda_cid13_p4	lambda_cid13_p5	lambda_cid14_p0	/jointset/ground_pelvis/pelvis_tilt/accel	/jointset/ground_pelvis/pelvis_tx/accel	/jointset/ground_pelvis/pelvis_ty/accel	/jointset/hip_l/hip_flexion_l/accel	/jointset/hip_l/hip_adduction_l/accel	/jointset/hip_l/hip_rotation_l/accel	/jointset/back/lumbar_extension/accel	/jointset/patellofemoral_l/patellar_flexion_l/accel	/jointset/knee_l/knee_flexion_l/accel	/jointset/knee_l/knee_adduction_l/accel	/jointset/knee_l/knee_rotation_l/accel	/jointset/ankle_l/ankle_angle_l/accel	/jointset/subtalar_l/subtalar_angle_l/accel	gamma_cid13_p0	gamma_cid13_p1	gamma_cid13_p2	gamma_cid13_p3	gamma_cid13_p4	gamma_cid13_p5	gamma_cid14_p0
0	-0.1588548856022486	0.05808710498950095	0.8979551294254603	0.3774920279260975	-0.2597697586774608	-0.2621601587459493	-0.0126506700172305	0.03223623128428059	0.03223623128433527	-0.1745328457169676	0.1642122950389331	-0.04231376238535053	-0.01001989591938338	0	0	0	0	0	0	0	0	0	0	0	0	0	0.1484973807262011	-0.07041743727821297	-0.04819356325073561	-0.2943994450762834	0.2907610246630144	-0.04672399729231613	-0.09507904062821608	51.40373565426919	5.346475666700627	5.53620869175396	0.6837827576801491	-583.4029007712802	-65.70035297877662	-38.75365972970697	-4.273514130166649	-2.353324679726017	-1.223753428318838	13.81720493139217	-1.411738798203834	3.601490859030172	-6.169345031873804	10.95058563931382	10.95058563931425	0.1757820673294338	0.1904333361846619	1.569591455444507	-1.081821336535349	-3.43257797987578e-08	1.757272356418702e-07	7.487052819885365e-08	2.088444232005991e-09	1.036255981007285e-07	2.928473996822223e-08	-7.282681943950143e-09
0.01	-0.1590609036941007	0.05797125451875852	0.8978953360807921	0.3781654910019676	-0.259840290988016	-0.261980826103715	-0.01296072695427256	0.03277184722494085	0.03277184722456469	-0.1745268073906149	0.1642186721644485	-0.04223793454814108	-0.01007452222013009	-0.04098444535036289	-0.0230278066937932	-0.01191502099073904	0.1340208047611595	-0.01405125194206799	0.03568369791363921	-0.06161551739296649	0.1066731028513136	0.106673102851316	0.001167049760445645	0.001303531351321456	0.0151572687636309	-0.01087194545833171	0.1437283055464446	-0.07977656673229798	-0.04741972456448734	-0.2904112998909294	0.2846648591883461	-0.03463289773809008	-0.09087997822519892	49.89427445198672	0.6269008922168268	5.983321508782855	0.4016107342700956	-584.6415315758089	-74.91149026913968	-38.76920797262738	-3.978044516787414	-2.256165125128353	-1.1688085178825	13.09373775187137	-1.393570839885292	3.52437967177005	-6.098274591977161	10.45816127926659	10.458161279267	0.08111063280993352	0.104526910111275	1.487548098568816	-1.081919837897163	-7.020772291929857e-08	1.604079566540783e-07	1.499128686032323e-07	2.857128551232151e-08	-6.797551405040302e-08	7.036895357276884e-09	-2.243962043419202e-08
0.02	-0.1596701931952869	0.05762939468889775	0.8977177061095301	0.3801590060261704	-0.260049686307539	-0.2614501423995277	-0.01387506296504341	0.03436069192785723	0.03436069192786249	-0.174510309726699	0.1642389273793693	-0.04201078332094647	-0.010236275712944	-0.08065428187348908	-0.04520187182366692	-0.02356732531878649	0.2640103896581127	-0.02777260179126678	0.07027021239679097	-0.1208558147448347	0.2106457525516684	0.2106457525516735	0.002091867617212064	0.002775617722783943	0.0302646779971284	-0.02142543841327073	0.1389592303668055	-0.08913569618623153	-0.04664588587391123	-0.2864231547061681	0.2785686937136927	-0.02254179818376929	-0.08668091582218804	48.4782251707996	-4.109083068634449	6.433116258334609	-0.04353077686143218	-584.4590650600165	-84.00005583688919	-38.81514887917835	-4.010592364720456	-2.182576366940984	-1.171210095780516	13.01096095855049	-1.345758379630292	3.382054172932773	-5.694301023654631	10.41049500912182	10.41049500912229	0.1273356865929347	0.2241443402127678	1.55961954941903	-1.018130835856835	-1.060896660398393e-07	1.450886776662863e-07	2.249552090076109e-07	5.505412679263703e-08	-2.395766262015345e-07	-1.521094925366846e-08	-3.75965589244339e-08
0.03	-0.1606700658765	0.05706985770864914	0.897424555815021	0.3834331934022711	-0.2603939419636939	-0.260578773440288	-0.01536898417554408	0.03697558704017245	0.03697558704026122	-0.1744848196168718	0.1642743216506915	-0.04163308280853873	-0.01050139017699713	-0.1191058490206744	-0.06658133496703968	-0.03504293210621465	0.3901833963663537	-0.0409646323168769	0.1038553288637495	-0.1774804357199284	0.3118399677274036	0.3118399677274128	0.003036633712745122	0.004277634351783143	0.0452316565156939	-0.03149888210267048	0.1321608066807117	-0.08317426827841157	-0.04562144209940971	-0.2800263544032522	0.2719552385987671	-0.02438565255082422	-0.08110945949286108	46.31882592317545	-3.057839415830345	6.41131009899618	0.5828040752580563	-584.342156987232	-80.83841850187083	-38.88991580880256	-3.730289144707309	-2.096991778324238	-1.132814357314689	12.32390108786146	-1.288874941422297	3.324470479443968	-5.579343890609898	9.899897022542909	9.899897022543495	0.08266464245471118	0.1093597434398141	1.458665353772209	-0.9872128920363858	-1.325554280895097e-07	1.801816467237227e-07	2.468123107568893e-07	8.262054590287853e-08	-3.720951013762635e-07	4.062851663447715e-09	-4.073445329597199e-08
0.04	-0.1620480242801589	0.05630025399891265	0.8970172337752206	0.3879497969576724	-0.260866707835577	-0.2593760072972102	-0.01741571184702016	0.04058762675449352	0.04058762675450349	-0.1744489583316682	0.1643239619719922	-0.04110702684080474	-0.01086429142925575	-0.1562714263676001	-0.08721521772124136	-0.04640167437708488	0.5124936255106486	-0.05347464493832622	0.1365496491653888	-0.2314171069420813	0.4100746729328673	0.410074672932878	0.004166102665120169	0.005624827748631388	0.05993576906214039	-0.04098279605426837	0.1253623829947937	-0.07721284037062245	-0.04459699832562466	-0.2736295541001527	0.2653417834838473	-0.02622950691789947	-0.07553800316339483	44.24468099351972	-2.018860556516988	6.388421621936803	1.05153893120454	-582.9477941750278	-77.55868184102339	-38.99155996854925	-3.753394404669634	-2.033460289105683	-1.147837192468909	12.23840544576093	-1.209354798798273	3.203894939869017	-5.156711073066976	9.818593015067245	9.818593015067218	0.1642762579610579	0.19317969378245	1.507046354996424	-0.9002248882963025	-1.588270420758631e-07	2.163140435759061e-07	2.675728096472996e-07	1.102093068240464e-07	-5.038077489844686e-07	2.419276898320434e-08	-4.36245323248564e-08
0.05	-0.1637916169948011	0.05532799032950995	0.8964965794616744	0.393671352224549	-0.26146124083327	-0.2578509217411039	-0.0199883749532232	0.0451683012898981	0.04516830128976643	-0.174401155095897	0.1643868264822504	-0.04043494427368312	-0.01131911896560924	-0.1922157141499312	-0.1071140640466924	-0.05773240477212233	0.6311818057926338	-0.06533395701985406	0.1683085075554054	-0.2827264943208362	0.505607138055621	0.5056071380556335	0.005370400520292712	0.006947482285501998	0.07444310638913551	-0.04990093881828823	0.1183358941749275	-0.07509365940816326	-0.04353903007575072	-0.2678099890949397	0.258411500147506	-0.0242118880933998	-0.06987602458405791	42.22128061496367	-2.561081258772629	6.497997328996495	1.458050556996646	-581.5379413056053	-77.47624623181881	-39.11758258636475	-3.480245664619395	-1.949556719540736	-1.126275254828133	11.58866051784475	-1.159557490501236	3.138000952614258	-5.059699574943835	9.352617596998881	9.352617596999524	0.09494327338466817	0.1016848429428668	1.416921508995533	-0.8754059921996842	-1.755766356559856e-07	2.241288255793576e-07	2.97337987410179e-07	1.251650839908667e-07	-5.806605050444383e-07	2.282014452705703e-08	-4.847057067803216e-08
0.06	-0.165887712527172	0.0541604462138013	0.8958625009858158	0.4005607165339817	-0.262171434567315	-0.2560130236683108	-0.02306246133414315	0.05069070934358685	0.05069070934358813	-0.1743420215370154	0.1644628928400148	-0.0396189195158027	-0.01186068733395223	-0.2267719899165391	-0.1262713069824332	-0.0690865068396119	0.7460554340117598	-0.07660679220825062	0.1991121525072527	-0.3317017618862804	0.5984213766231328	0.5984213766231503	0.00643216733904835	0.008265197194479004	0.08872420721391434	-0.05833096245209954	0.111309405355383	-0.07297447844561941	-0.04248106182431689	-0.2619904240898394	0.2514812168111952	-0.02219426926883119	-0.06421404600451271	40.27188548890887	-3.113695102448891	6.606303135618234	1.722273804079846	-579.0119207288399	-77.28770844171923	-39.26538062723115	-3.475792001525936	-1.885139611162531	-1.152511526959304	11.47549503318872	-1.092059420172071	3.012852252235263	-4.689887110405214	9.274947704018599	9.274947704019237	0.1357700506774807	0.1921917682035818	1.461799054554367	-0.802601062254388	-1.91925302061109e-07	2.307512869575993e-07	3.274823095466361e-07	1.395889460522407e-07	-6.552033709339557e-07	2.054214989087167e-08	-5.339896521328335e-08
0.07000000000000001	-0.16832327188151	0.05280507284964801	0.8951145268792489	0.4085808923790898	-0.2629910557508374	-0.2538719518895936	-0.02661387115608983	0.05712791458397189	0.05712791458403307	-0.1742724826336437	0.1645522479403174	-0.03866110175340438	-0.01248374854529027	-0.2601321867686256	-0.1446719790631137	-0.08052511445026383	0.8573458917240244	-0.08718930636354848	0.2289429685361667	-0.3781759884679389	0.6885191630952796	0.6885191630952653	0.007476995583824765	0.009587080506469878	0.1027884838024212	-0.0661748544820749	0.1041180656095768	-0.06999013511736261	-0.04149139303106245	-0.2570189307890147	0.2457625633533144	-0.02110515526221877	-0.0584126148503745	38.64787671371673	-3.332536871661887	6.675677831835128	1.819986961999844	-576.9037679536901	-76.39079866510357	-39.43192209212356	-3.234989755202491	-1.797794893129141	-1.142187318725451	10.86072079876761	-1.022167612541195	2.94426429053805	-4.565558328205364	8.802128602550027	8.802128602545222	0.08911200941162904	0.09933031062788013	1.371100603084366	-0.7593910276880182	-1.989686017935694e-07	2.350224681584732e-07	3.31566159751463e-07	1.509953442891672e-07	-6.963275701061212e-07	2.646406395249887e-08	-5.352091530230203e-08
0.08	-0.1710862044499849	0.05126963998736958	0.8942516363084536	0.4176949527330774	-0.2639126661157796	-0.2514373583481431	-0.03061789682307628	0.06445108458590805	0.06445108458590589	-0.174192440888203	0.1646542506132173	-0.03756416949670399	-0.0131820702277918	-0.2922466327469374	-0.1622832066074632	-0.09206979968533413	0.9648323357771955	-0.0970046284921611	0.2578165050578358	-0.4222249308960871	0.7756143289169031	0.7756143289168601	0.008532735749966203	0.01079471173570062	0.1165471060743543	-0.07338305668480152	0.09692672586416523	-0.06700579178904408	-0.04050172423835235	-0.2520474374879257	0.2400439098954958	-0.02001604125552459	-0.05261118369596827	37.08753242045189	-3.558918024740907	6.742135290339112	1.788927668909762	-573.8420967047251	-75.39867605625152	-39.61396887414218	-3.226641826771933	-1.727250703895242	-1.173727051842945	10.71469230136967	-0.9386210148351141	2.821396350786384	-4.204830279703562	8.674423573913646	8.674423573914922	0.1379524349503176	0.1693413516514045	1.400668191240787	-0.6754630968044217	-2.054115552890838e-07	2.391419538640331e-07	3.339686891865073e-07	1.622070674406455e-07	-7.352957262642638e-07	3.291500438172689e-08	-5.33327722012412e-08
0.09	-0.1741646341683614	0.0495619705197498	0.893272519787639	0.4278663386283106	-0.2649286819449672	-0.2487187234250567	-0.03505004630264978	0.07263145012014365	0.07263145012015156	-0.1741018643363736	0.1647680983906853	-0.03633081480684533	-0.01394931257182397	-0.3232258758562983	-0.1791215032536098	-0.1037844942660133	1.068834719745531	-0.1060826487315721	0.2857715300637465	-0.4638405794137319	0.8599972867508161	0.8599972867508098	0.009554064315823091	0.01195141813155914	0.1300796283395486	-0.07997088731626653	0.08955622627456156	-0.06430275782119349	-0.0395146187039735	-0.2475258719072147	0.2346035353390279	-0.01860019388907309	-0.04673057157119745	35.61056321089887	-3.927727387855864	6.815226389611588	1.778782004137303	-571.0189240594742	-74.66079986696603	-39.80797850074955	-3.001559039047452	-1.6427089700537	-1.175136818280128	10.15146895179509	-0.8750488361680363	2.761666073624915	-4.085274298484226	8.251018874098937	8.251018874103798	0.08001238626907532	0.08527530492137486	1.322900536727429	-0.6363374622539363	-2.062951943164818e-07	2.247708347177135e-07	3.42225196472966e-07	1.658552061362084e-07	-7.453400362382354e-07	2.784844111716212e-08	-5.461690149516457e-08
